<svg xmlns="http://www.w3.org/2000/svg" viewBox="0 0 512 512" width="512" height="512" role="img" aria-labelledby="osTitle">
  <title id="osTitle">OpenSlides — code presentation app icon</title>
  <defs>
    <radialGradient id="osBg" cx="30%" cy="22%" r="95%"><stop offset="0%" stop-color="#1B2233"/><stop offset="55%" stop-color="#12151F"/><stop offset="100%" stop-color="#0C0E15"/></radialGradient>
    <radialGradient id="osGlowBlue"><stop offset="0%" stop-color="#569CD6" stop-opacity="0.28"/><stop offset="100%" stop-color="#569CD6" stop-opacity="0"/></radialGradient>
    <radialGradient id="osGlowAmber"><stop offset="0%" stop-color="#CE9178" stop-opacity="0.18"/><stop offset="100%" stop-color="#CE9178" stop-opacity="0"/></radialGradient>
    <linearGradient id="osCard" x1="0" y1="0" x2="1" y2="1"><stop offset="0%" stop-color="#262C3D"/><stop offset="100%" stop-color="#171A25"/></linearGradient>
    <linearGradient id="osCardEdge" x1="0" y1="0" x2="0" y2="1"><stop offset="0%" stop-color="#525E82"/><stop offset="100%" stop-color="#2A3045"/></linearGradient>
    <linearGradient id="osPlay" x1="0" y1="0" x2="1" y2="1"><stop offset="0%" stop-color="#6FB4E8"/><stop offset="100%" stop-color="#4EC9B0"/></linearGradient>
    <filter id="osShadow" x="-40%" y="-40%" width="180%" height="180%"><feDropShadow dx="0" dy="16" stdDeviation="20" flood-color="#000000" flood-opacity="0.5"/></filter>
    <filter id="osGlow" x="-60%" y="-60%" width="220%" height="220%"><feGaussianBlur stdDeviation="7" result="b"/><feMerge><feMergeNode in="b"/><feMergeNode in="SourceGraphic"/></feMerge></filter>
  </defs>
  <rect width="512" height="512" rx="118" fill="url(#osBg)"/>
  <ellipse cx="160" cy="130" rx="230" ry="170" fill="url(#osGlowBlue)"/>
  <ellipse cx="392" cy="408" rx="210" ry="150" fill="url(#osGlowAmber)"/>
  <rect x="122" y="112" width="292" height="204" rx="20" transform="rotate(-8 268 214)" fill="#1F2432" stroke="#333B52" stroke-width="1.5"/>
  <rect x="110" y="132" width="302" height="210" rx="20" transform="rotate(4.5 261 237)" fill="#252B3C" stroke="#3A4362" stroke-width="1.5"/>
  <g filter="url(#osShadow)"><rect x="94" y="156" width="322" height="226" rx="22" fill="url(#osCard)" stroke="url(#osCardEdge)" stroke-width="2"/></g>
  <circle cx="124" cy="184" r="5.5" fill="#569CD6"/><circle cx="146" cy="184" r="5.5" fill="#DCDCAA"/><circle cx="168" cy="184" r="5.5" fill="#CE9178"/>
  <line x1="96" y1="203" x2="414" y2="203" stroke="#FFFFFF" stroke-opacity="0.07" stroke-width="1.5"/>
  <g opacity="0.5"><rect x="122" y="222" width="70" height="11" rx="5.5" fill="#569CD6"/><rect x="202" y="222" width="102" height="11" rx="5.5" fill="#46506B"/><rect x="140" y="246" width="52" height="11" rx="5.5" fill="#C586C0"/><rect x="202" y="246" width="116" height="11" rx="5.5" fill="#CE9178"/></g>
  <g filter="url(#osGlow)"><rect x="114" y="264" width="276" height="27" rx="8" fill="#DCDCAA" fill-opacity="0.10" stroke="#DCDCAA" stroke-opacity="0.5" stroke-width="1.5"/></g>
  <rect x="140" y="272" width="96" height="11" rx="5.5" fill="#DCDCAA"/><rect x="246" y="272" width="108" height="11" rx="5.5" fill="#4EC9B0"/><rect x="362" y="268" width="3.5" height="19" rx="1.75" fill="#E8ECF8" opacity="0.9"/>
  <g opacity="0.45"><rect x="140" y="300" width="86" height="11" rx="5.5" fill="#4EC9B0"/><rect x="236" y="300" width="58" height="11" rx="5.5" fill="#46506B"/><rect x="122" y="324" width="58" height="11" rx="5.5" fill="#46506B"/></g>
  <g filter="url(#osShadow)"><circle cx="398" cy="352" r="37" fill="url(#osPlay)" stroke="#0C0E15" stroke-width="7"/></g>
  <path d="M388 334.5 L417 352 L388 369.5 Z" fill="#0D1017"/>
  <path d="M452 118 v26 M439 131 h26" stroke="#569CD6" stroke-opacity="0.55" stroke-width="4" stroke-linecap="round"/><path d="M66 322 v18 M57 331 h18" stroke="#CE9178" stroke-opacity="0.45" stroke-width="3.5" stroke-linecap="round"/>
</svg>
